<?xml version="1.0" encoding="UTF-8" standalone="no"?>
<svg width="169px" height="200px" viewBox="0 0 169 200" version="1.1" xmlns="http://www.w3.org/2000/svg" xmlns:xlink="http://www.w3.org/1999/xlink">
    <!-- Generator: Sketch 3.8.1 (29687) - http://www.bohemiancoding.com/sketch -->
    <title>Living Room</title>
    <desc>Created with Sketch.</desc>
    <defs>
        <polygon id="path-1" points="0.0187084871 0.307430124 0.0187084871 86.1387997 27.4970047 86.1387997 27.4970047 0.307430124 0.0187084871 0.307430124"></polygon>
    </defs>
    <g id="Symbols" stroke="none" stroke-width="1" fill="none" fill-rule="evenodd">
        <g id="Living-Room">
            <g>
                <g id="SuperBase" transform="translate(4.000000, 0.000000)"></g>
                <path id="Fill-2" fill="#ADC1B9"></path>
                <g id="Base" transform="translate(4.000000, 44.000000)" fill="#3BB44A">
                    <path d="M82.4612731,121.019439 L82.4612731,121.019439 L82.4204262,121.019439 L82.4082657,121.019439 C82.3967288,121.019439 82.3886218,121.019439 82.3770849,121.019127 L82.3652362,121.019127 L82.3250129,121.019127 L82.3165941,121.019127 L82.2838542,121.019127 L82.2707583,121.019127 L82.2345886,121.019127 L82.2299114,121.019127 C82.2165037,121.018815 82.2012251,121.018815 82.1878173,121.018815 L82.1784631,121.018815 L82.1447878,121.018815 L82.1354336,121.018815 C82.1220258,121.018503 82.107059,121.018503 82.0936513,121.018503 L82.0883506,121.018503 C82.0768137,121.018503 82.0624705,121.018503 82.0512454,121.018191 L82.0412675,121.018191 L82.0050978,121.018191 C82.0022915,121.018191 82.0016679,121.018191 81.9988616,121.017879 L81.9564557,121.017879 L81.9505314,121.017879 C81.9389945,121.017567 81.9249631,121.017567 81.9134262,121.017567 L81.9043838,121.017567 C81.8775683,121.017255 81.8466993,121.016943 81.8198838,121.016943 L81.8114649,121.016943 C81.799928,121.01663 81.7855849,121.01663 81.774048,121.01663 L81.7684354,121.016318 C81.7531568,121.016318 81.7406845,121.016318 81.7250941,121.016006 L81.7216642,121.016006 C81.7082565,121.016006 81.6945369,121.015694 81.6811292,121.015694 L81.6758284,121.015694 C81.6449594,121.015382 81.6184557,121.01507 81.5875867,121.014758 L81.5832214,121.014758 C81.5719963,121.014446 81.5554705,121.014446 81.5442454,121.014446 C81.5414391,121.014134 81.5408155,121.014134 81.5380092,121.014134 C81.507452,121.013821 81.4806365,121.013509 81.4500793,121.013197 L81.4463376,121.013197 C81.4154686,121.012885 81.3874059,121.012573 81.3568487,121.011949 L81.3556015,121.011949 C81.3403229,121.011949 81.3281624,121.011637 81.312572,121.011325 L81.3085185,121.011325 C81.2779613,121.011012 81.2498985,121.0107 81.2193413,121.010076 C81.2165351,121.010076 81.2199649,121.010076 81.2171587,121.010076 C81.2018801,121.009764 81.1894077,121.009764 81.1741292,121.009452 L81.1716347,121.009452 C81.1410775,121.008828 81.1120793,121.008516 81.0812103,121.007891 L81.0799631,121.007891 C50.1844557,120.500085 23.4275775,102.973447 9.74855535,77.3887065 L9.74855535,37.7895217 L8.75295203,36.1275264 L0.696142066,28.0628696 C1.23619373,23.7903711 2.10520295,19.6208696 3.27198893,15.5777733 L15.595893,0.23217236 L44.9438967,29.6583851 L112.005092,29.934604 L119.21659,29.1190559 L133.300963,43.2065342 L136.82003,43.641618 L141.169129,41.9312453 L137.903563,38.5769798 L149.362199,26.1162283 L164.818839,41.6157003 C164.493935,50.4203742 162.790839,58.8726739 159.919399,66.7625481 L159.919399,53.7356258 L130.818035,53.7356258 L130.818035,79.7501444 L133.634598,79.7501444 L134.323694,86.7380155 L135.805406,86.7380155 L136.494502,79.7501444 L153.860967,79.7501444 C139.979269,103.787435 114.333987,120.163317 84.8004576,120.986668 C84.7976513,120.986668 84.801393,120.986668 84.7985867,120.986668 C84.7661587,120.987604 84.7362251,120.98854 84.703797,120.989477 L84.700679,120.989477 C84.6900775,120.989789 84.6838413,120.989789 84.672928,120.990101 L84.6676273,120.990413 C84.656714,120.990725 84.6495424,120.990725 84.638941,120.991037 L84.6364465,120.991037 C84.6255332,120.991349 84.6164908,120.991661 84.6058893,120.991974 L84.6046421,120.991974 C84.5937288,120.992286 84.5849982,120.992598 84.5740849,120.992598 L84.5709668,120.99291 C84.5600535,120.993222 84.5547528,120.993222 84.5438395,120.993534 L84.5360443,120.993534 C84.5279373,120.993846 84.5188948,120.994158 84.5107878,120.994158 C84.5079815,120.99447 84.5067343,120.99447 84.503928,120.99447 C84.4933266,120.994783 84.4895849,120.994783 84.4786716,120.995095 C84.4758653,120.995095 84.4739945,120.995095 84.4711882,120.995407 C84.4630812,120.995407 84.4540387,120.995719 84.4459317,120.995719 C84.4434373,120.996031 84.440631,120.996031 84.4378247,120.996031 C84.4297177,120.996343 84.4225461,120.996343 84.4144391,120.996655 L84.4053967,120.996655 C84.3972897,120.996967 84.3882472,120.99728 84.3801402,120.99728 C84.3773339,120.997592 84.3776458,120.997592 84.3748395,120.997592 C84.3639262,120.997904 84.3592491,120.997904 84.3483358,120.998216 L84.3411642,120.998216 C84.3330572,120.998528 84.3230793,120.998528 84.3149723,120.99884 L84.309048,120.99884 C84.300941,120.999152 84.2922103,120.999464 84.2841033,120.999464 C84.281297,120.999464 84.2766199,120.999776 84.2738137,120.999776 C84.2657066,120.999776 84.2588469,121.000089 84.2507399,121.000401 L84.2420092,121.000401 C84.2339022,121.000713 84.2270424,121.000713 84.2189354,121.001025 L84.2092694,121.001025 C84.2011624,121.001337 84.1927435,121.001337 84.1846365,121.001649 L84.180583,121.001649 C84.1696697,121.001961 84.1637454,121.001961 84.1531439,121.002273 C84.1503376,121.002273 84.1475314,121.002273 84.1447251,121.002585 C84.1366181,121.002585 84.1278875,121.002898 84.1197804,121.002898 L84.1144797,121.002898 C84.1063727,121.00321 84.0954594,121.003522 84.0873524,121.003522 L84.0829871,121.003522 C84.0614723,121.004146 84.0440111,121.004458 84.0224963,121.00477 C84.01969,121.00477 84.0171956,121.00477 84.0143893,121.005082 C83.9333192,121.006331 83.8544317,121.007891 83.7733616,121.00914 L83.7605775,121.00914 C83.7552768,121.009452 83.7481052,121.009452 83.7428044,121.009452 C83.7371919,121.009764 83.7340738,121.009764 83.7287731,121.009764 C83.7231605,121.009764 83.7150535,121.010076 83.7097528,121.010076 C83.7041402,121.010076 83.7007103,121.010076 83.6950978,121.010388 L83.6776365,121.010388 C83.6723358,121.0107 83.6682823,121.0107 83.6626697,121.0107 C83.657369,121.0107 83.6520683,121.011012 83.6464557,121.011012 C83.641155,121.011012 83.6342952,121.011012 83.6286827,121.011325 L83.6130923,121.011325 C83.610286,121.011325 83.5999963,121.011637 83.5975018,121.011637 C83.5893948,121.011637 83.5862768,121.011637 83.5781697,121.011949 L83.5638266,121.011949 C83.5557196,121.012261 83.5532251,121.012261 83.5451181,121.012261 C83.5423118,121.012261 83.5348284,121.012573 83.5320221,121.012573 C83.5239151,121.012573 83.5214207,121.012573 83.5133137,121.012885 L83.4977232,121.012885 C83.4921107,121.012885 83.4871218,121.013197 83.4815092,121.013197 L83.465607,121.013197 C83.4603063,121.013509 83.4525111,121.013509 83.4472103,121.013509 C83.4444041,121.013509 83.4356734,121.013509 83.4328672,121.013821 L83.4138469,121.013821 C83.4110406,121.013821 83.4032454,121.014134 83.4004391,121.014134 L83.3817306,121.014134 C83.3761181,121.014446 83.3720646,121.014446 83.366452,121.014446 C83.3611513,121.014446 83.3546033,121.014446 83.3493026,121.014758 L83.3346476,121.014758 C83.3290351,121.014758 83.3215517,121.014758 83.3162509,121.01507 L83.3012841,121.01507 C83.2956716,121.01507 83.2888118,121.015382 83.2831993,121.015382 L83.2688561,121.015382 C83.2635554,121.015382 83.2563838,121.015694 83.2507712,121.015694 L83.234869,121.015694 C83.2295683,121.015694 83.2236439,121.016006 83.2180314,121.016006 L83.2027528,121.016006 C83.1971402,121.016006 83.1905923,121.016006 83.1852915,121.016318 L83.1690775,121.016318 L83.1525517,121.016318 C83.1469391,121.01663 83.1428856,121.01663 83.1372731,121.01663 L83.1191882,121.01663 C83.1135756,121.01663 83.1092103,121.016943 83.1035978,121.016943 L83.0867601,121.016943 L83.0711697,121.016943 C83.0655572,121.017255 83.0590092,121.017255 83.0537085,121.017255 L83.0378063,121.017255 C83.0325055,121.017255 83.0259576,121.017567 83.020345,121.017567 L83.0060018,121.017567 L82.987917,121.017567 C82.9823044,121.017567 82.9766919,121.017567 82.9710793,121.017879 L82.9554889,121.017879 L82.9389631,121.017879 C82.9336624,121.017879 82.927738,121.017879 82.9224373,121.018191 L82.9052878,121.018191 L82.8900092,121.018191 L82.8722362,121.018191 C82.8694299,121.018191 82.8597638,121.018503 82.8569576,121.018503 L82.8376255,121.018503 L82.8245295,121.018503 L82.805821,121.018503 L82.7908542,121.018503 C82.7824354,121.018815 82.7811882,121.018815 82.7727694,121.018815 L82.7581144,121.018815 L82.7415886,121.018815 L82.7244391,121.018815 L82.7079133,121.018815 C82.7026125,121.018815 82.6973118,121.019127 82.6920111,121.019127 L82.6751734,121.019127 L82.6589594,121.019127 L82.6414982,121.019127 L82.6262196,121.019127 L82.6081347,121.019127 L82.5931679,121.019127 L82.5729004,121.019127 L82.560428,121.019127 L82.5401605,121.019127 C82.5348598,121.019439 82.5326771,121.019439 82.5270646,121.019439 L82.4993137,121.019439 L82.4946365,121.019439 L82.4612731,121.019439 M116.367911,82.384368 L117.502893,86.7380155 L119.943415,86.7380155 L121.078085,82.384368 L116.367911,82.384368 M44.3436661,84.2997981 L44.979131,86.7380155 L47.4199649,86.7380155 L48.5546347,82.384368 L43.8444613,82.384368 L44.3436661,84.2997981 M29.9431199,82.8247578 L30.3291384,86.7380155 L31.8108506,86.7380155 L32.4996347,79.7501444 L29.6400424,79.7501444 L29.9431199,82.8247578 M16.7726568,79.7501444 L17.461441,86.7380155 L18.9434649,86.7380155 L19.6322491,79.7501444 L16.7726568,79.7501444 M121.078085,82.384368 L121.56014,82.384368 L121.56014,82.3693866 C125.60928,82.1203214 128.815915,78.7541957 128.815915,74.6386894 L128.815915,53.7356258 L117.924146,53.7356258 L117.924146,68.4086258 L46.9984004,68.4086258 L46.9984004,53.7356258 L36.106631,53.7356258 L36.106631,74.6386894 C36.106631,78.6614984 39.1698339,81.9676988 43.0889502,82.3478509 L43.0889502,82.384368 L121.078085,82.384368" id="Fill-3"></path>
                </g>
                <g id="Right-Table" transform="translate(27.000000, 84.000000)">
                    <polygon id="Fill-4" fill="#000000" points="107.818035 39.7501444 136.919399 39.7501444 136.919399 13.7356258 107.818035 13.7356258"></polygon>
                    <polygon id="Fill-5" fill="#000000" points="104.56993 13.7356258 140.167192 13.7356258 140.167192 10.2836693 104.56993 10.2836693"></polygon>
                    <polygon id="Fill-6" fill="#FFFFFF" points="110.088934 24.3093494 134.6485 24.3093494 134.6485 15.4612919 110.088934 15.4612919"></polygon>
                    <polygon id="Fill-7" fill="#ADAFAB" points="107.818035 14.5143447 136.919399 14.5143447 136.919399 13.7356258 107.818035 13.7356258"></polygon>
                    <path d="M124.618568,19.8854767 C124.618568,21.1292422 123.611116,22.7859317 122.368561,22.7859317 C121.126006,22.7859317 120.118865,21.1292422 120.118865,19.8854767 C120.118865,18.6417112 121.126006,17.633278 122.368561,17.633278 C123.611116,17.633278 124.618568,18.6417112 124.618568,19.8854767" id="Fill-8" fill="#D3D1CB"></path>
                    <path d="M124.618568,19.8854767 C124.618568,21.1292422 123.611116,22.1373634 122.368561,22.1373634 C121.126006,22.1373634 120.118865,21.1292422 120.118865,19.8854767 C120.118865,18.6417112 121.126006,17.633278 122.368561,17.633278 C123.611116,17.633278 124.618568,18.6417112 124.618568,19.8854767" id="Fill-9" fill="#FDE04D"></path>
                    <polygon id="Fill-10" fill="#FFFFFF" points="110.088934 36.6093634 134.6485 36.6093634 134.6485 27.7613059 110.088934 27.7613059"></polygon>
                    <path d="M124.618568,32.1851786 C124.618568,33.4289441 123.611116,35.0856335 122.368561,35.0856335 C121.126006,35.0856335 120.118865,33.4289441 120.118865,32.1851786 C120.118865,30.941413 121.126006,29.9329798 122.368561,29.9329798 C123.611116,29.9329798 124.618568,30.941413 124.618568,32.1851786" id="Fill-11" fill="#D3D1CB"></path>
                    <path d="M124.618568,32.1851786 C124.618568,33.4289441 123.611116,34.4373773 122.368561,34.4373773 C121.126006,34.4373773 120.118865,33.4289441 120.118865,32.1851786 C120.118865,30.941413 121.126006,29.9329798 122.368561,29.9329798 C123.611116,29.9329798 124.618568,30.941413 124.618568,32.1851786" id="Fill-12" fill="#FDE04D"></path>
                    <polygon id="Fill-13" fill="#ADAFAB" points="110.088934 37.1093634 134.6485 37.1093634 134.6485 36.6093634 110.088934 36.6093634"></polygon>
                    <polygon id="Fill-14" fill="#ADAFAB" points="110.088934 24.8093494 134.6485 24.8093494 134.6485 24.3093494 110.088934 24.3093494"></polygon>
                    <polyline id="Fill-15" fill="#5A5A5A" points="111.323694 46.7380155 112.805406 46.7380155 113.494502 39.7501444 110.634598 39.7501444 111.323694 46.7380155"></polyline>
                    <polyline id="Fill-16" fill="#38383A" points="113.191113 42.8247578 110.937675 42.8247578 110.634598 39.7501444 113.494502 39.7501444 113.191113 42.8247578"></polyline>
                    <polyline id="Fill-17" fill="#5A5A5A" points="133.413428 46.7380155 131.931716 46.7380155 131.242932 39.7501444 134.102524 39.7501444 133.413428 46.7380155"></polyline>
                    <polyline id="Fill-18" fill="#38383A" points="133.799446 42.8247578 131.546009 42.8247578 131.242932 39.7501444 134.102524 39.7501444 133.799446 42.8247578"></polyline>
                    <path id="Fill-21" fill="#ADAFAB"></path>
                    <path id="Fill-22" fill="#ADAFAB"></path>
                </g>
                <g id="Cup" transform="translate(27.000000, 82.000000)">
                    <path d="M5.46047232,12.045528 L1.76741697,12.045528 C1.44126568,12.045528 1.17654059,11.780545 1.17654059,11.453764 L1.17654059,3.44840839 C1.17654059,3.12162733 1.44126568,2.85695652 1.76741697,2.85695652 L5.46047232,2.85695652 C5.78693542,2.85695652 6.05166052,3.12162733 6.05166052,3.44840839 L6.05166052,11.453764 C6.05166052,11.780545 5.78693542,12.045528 5.46047232,12.045528" id="Fill-20" fill="#B9333A"></path>
                    <path d="M6.0625738,12.045528 L1.1653155,12.045528 C0.796134686,12.045528 0.497110701,11.7459006 0.497110701,11.3766724 L0.497110701,3.52581211 C0.497110701,3.15627174 0.796134686,2.85695652 1.1653155,2.85695652 L6.0625738,2.85695652 C6.43175461,2.85695652 6.73109041,3.15627174 6.73109041,3.52581211 L6.73109041,11.3766724 C6.73109041,11.7459006 6.43175461,12.045528 6.0625738,12.045528" id="Fill-19" fill="#EF5060"></path>
                    <path d="M5.59174354,7.45124224 C5.59174354,8.54456988 4.70620849,9.43096739 3.61394465,9.43096739 C2.52168081,9.43096739 1.63614576,8.54456988 1.63614576,7.45124224 C1.63614576,6.3579146 2.52168081,5.47151708 3.61394465,5.47151708 C4.70620849,5.47151708 5.59174354,6.3579146 5.59174354,7.45124224" id="Fill-23" fill="#F9F6F4"></path>
                    <path d="M4.63605166,1.63098137 L3.84312362,1.63098137 L3.84312362,1.36350155 C3.84312362,1.14439907 4.02054244,0.966807453 4.23943173,0.966807453 C4.45863284,0.966807453 4.63605166,1.14439907 4.63605166,1.36350155 L4.63605166,1.63098137 L4.63605166,1.63098137 Z M3.84312362,1.98710093 L4.63605166,1.98710093 L4.63605166,1.76050776 L3.84312362,1.76050776 L3.84312362,1.98710093 Z M4.23943173,0.821051242 C3.94040775,0.821051242 3.69750923,1.06387422 3.69750923,1.36350155 L3.69750923,2.61881522 L4.78166605,2.61881522 L4.78166605,1.36350155 C4.78166605,1.06387422 4.53876753,0.821051242 4.23943173,0.821051242 L4.23943173,0.821051242 Z" id="Fill-24" fill="#ADAFAB"></path>
                </g>
                <polygon id="Fill-25" fill="#6B6C6B" points="30.6975092 84.6969767 31.7816661 84.6969767 31.7816661 84.4889767 30.6975092 84.4889767"></polygon>
                <path d="M31.0308321,88.8235854 C31.0308321,89.3086071 30.6379539,89.701868 30.1534041,89.701868 C29.6688542,89.701868 29.275976,89.3086071 29.275976,88.8235854 C29.275976,88.3385637 29.6688542,87.9453028 30.1534041,87.9453028 C30.6379539,87.9453028 31.0308321,88.3385637 31.0308321,88.8235854" id="Fill-26" fill="#B9333A"></path>
                <path d="M30.7118524,88.3504239 C30.8855295,88.5242702 30.9413432,88.7508634 30.835952,88.856045 C30.7305609,88.9615388 30.5045,88.9059829 30.3308229,88.7318245 C30.1568339,88.5579783 30.1013321,88.3316972 30.2067232,88.2262034 C30.3118026,88.1207096 30.5381753,88.1765776 30.7118524,88.3504239" id="Fill-27" fill="#D8474D"></path>
                <path d="M31.0314557,90.3925714 C31.0314557,90.7043711 30.7788911,90.9571817 30.4673948,90.9571817 C30.1555867,90.9571817 29.9030221,90.7043711 29.9030221,90.3925714 C29.9030221,90.0804596 30.1555867,89.8276491 30.4673948,89.8276491 C30.7788911,89.8276491 31.0314557,90.0804596 31.0314557,90.3925714" id="Fill-28" fill="#B9333A"></path>
                <path d="M30.8466134,90.09461 C30.9648888,90.212556 31.0024471,90.3664129 30.9309547,90.4379053 C30.8594623,90.5093976 30.7059349,90.47151 30.5876595,90.353564 C30.4697135,90.2356181 30.4318258,90.0817612 30.5033182,90.0102688 C30.5748106,89.9387764 30.7286675,89.9763346 30.8466134,90.09461" id="Fill-29" fill="#D8474D"></path>
                <path d="M31.8396624,89.5280217 C31.8396624,89.7514938 31.6588137,89.9325186 31.435559,89.9325186 C31.2123044,89.9325186 31.0314557,89.7514938 31.0314557,89.5280217 C31.0314557,89.3045497 31.2123044,89.1235248 31.435559,89.1235248 C31.6588137,89.1235248 31.8396624,89.3045497 31.8396624,89.5280217" id="Fill-30" fill="#B9333A"></path>
                <path id="Fill-31" fill="#D8474D"></path>
                <g id="Book-Shelf" transform="translate(17.000000, 94.000000)">
                    <polyline id="Fill-32" fill="#5A5A5A" points="18.8108506 36.7380155 17.3291384 36.7380155 16.6400424 29.7501444 19.4996347 29.7501444 18.8108506 36.7380155"></polyline>
                    <path d="M19.1965572,32.8247578 L19.1965572,32.8247578 L19.4996347,29.7501444 L19.1965572,32.8247578 M16.9431199,32.8247578 L16.9431199,32.8247578 L16.6400424,29.7501444 L16.9431199,32.8247578" id="Fill-33" fill="#3E645E"></path>
                    <polyline id="Fill-34" fill="#38383A" points="19.1965572 32.8247578 16.9431199 32.8247578 16.6400424 29.7501444 19.4996347 29.7501444 19.1965572 32.8247578"></polyline>
                    <polyline id="Fill-35" fill="#5A5A5A" points="4.46144096 36.7380155 5.94346494 36.7380155 6.63224908 29.7501444 3.77265683 29.7501444 4.46144096 36.7380155"></polyline>
                    <polyline id="Fill-36" fill="#38383A" points="6.32917159 32.8247578 4.07573432 32.8247578 3.77265683 29.7501444 6.63224908 29.7501444 6.32917159 32.8247578"></polyline>
                    <polygon id="Fill-37" fill="#D3D1CB" points="0.955782288 29.7501444 22.3165092 29.7501444 22.3165092 0.283669255 0.955782288 0.283669255"></polygon>
                    <polygon id="Fill-38" fill="#3B3B3D" points="3.22668081 26.8059938 20.0456107 26.8059938 20.0456107 3.22781988 3.22668081 3.22781988"></polygon>
                    <path d="M7.50094649,8.50438199 L7.50094649,26.4292748 C7.50094649,26.6340202 7.66682841,26.7997516 7.87137454,26.7997516 L9.29914391,26.7997516 C9.50369004,26.7997516 9.66957196,26.6340202 9.66957196,26.4292748 L9.66957196,8.50438199 C9.66957196,8.29994876 9.50369004,8.13390528 9.29914391,8.13390528 L7.87137454,8.13390528 C7.66682841,8.13390528 7.50094649,8.29994876 7.50094649,8.50438199" id="Fill-39" fill="#DD4634"></path>
                    <polygon id="Fill-40" fill="#3B3B3D" points="8.24959779 19.4741755 8.92123247 19.4741755 8.92123247 10.1573261 8.24959779 10.1573261"></polygon>
                    <polygon id="Fill-41" fill="#3B3B3D" points="8.24959779 24.196427 8.92123247 24.196427 8.92123247 20.7023354 8.24959779 20.7023354"></polygon>
                    <path d="M3.22699262,10.5858556 L3.22699262,26.4292748 C3.22699262,26.6340202 3.39287454,26.7997516 3.59742066,26.7997516 L7.13083026,26.7997516 C7.33537638,26.7997516 7.50094649,26.6340202 7.50094649,26.4292748 L7.50094649,10.5858556 C7.50094649,10.3811102 7.33537638,10.2153789 7.13083026,10.2153789 L3.59742066,10.2153789 C3.39287454,10.2153789 3.22699262,10.3811102 3.22699262,10.5858556" id="Fill-42" fill="#E7AD42"></path>
                    <path d="M6.92410148,12.9894286 C6.92410148,13.8517935 6.22565129,14.5509239 5.36412546,14.5509239 C4.50259963,14.5509239 3.80414945,13.8517935 3.80414945,12.9894286 C3.80414945,12.1270637 4.50259963,11.4279332 5.36412546,11.4279332 C6.22565129,11.4279332 6.92410148,12.1270637 6.92410148,12.9894286" id="Fill-43" fill="#E06E36"></path>
                    <polygon id="Fill-44" fill="#F9F6F4" points="3.22668081 23.4005419 7.50094649 23.4005419 7.50094649 22.3727578 3.22668081 22.3727578"></polygon>
                    <polygon id="Fill-45" fill="#E06E36" points="3.80414945 15.678896 6.92410148 15.678896 6.92410148 15.0718385 3.80414945 15.0718385"></polygon>
                    <path d="M9.66957196,9.91263043 L9.66957196,26.4292748 C9.66957196,26.6340202 9.83545387,26.7997516 10.0396882,26.7997516 L11.4677694,26.7997516 C11.6723155,26.7997516 11.8378856,26.6340202 11.8378856,26.4292748 L11.8378856,9.91263043 C11.8378856,9.70788509 11.6723155,9.54184161 11.4677694,9.54184161 L10.0396882,9.54184161 C9.83545387,9.54184161 9.66957196,9.70788509 9.66957196,9.91263043" id="Fill-46" fill="#E7AD42"></path>
                    <polygon id="Fill-47" fill="#E06E36" points="10.4069982 14.2675264 11.1004594 14.2675264 11.1004594 10.8845466 10.4069982 10.8845466"></polygon>
                    <polygon id="Fill-48" fill="#E06E36" points="10.4069982 16.6938835 11.1004594 16.6938835 11.1004594 15.0022376 10.4069982 15.0022376"></polygon>
                    <polygon id="Fill-49" fill="#F9F6F4" points="9.66957196 23.0344348 11.8378856 23.0344348 11.8378856 22.3537189 9.66957196 22.3537189"></polygon>
                    <path d="M10.7537288,24.500736 C11.0290554,24.500736 11.2519982,24.7242081 11.2519982,24.9998028 C11.2519982,25.2750854 11.0290554,25.4985575 10.7537288,25.4985575 C10.4784022,25.4985575 10.2554594,25.2750854 10.2554594,24.9998028 C10.2554594,24.7242081 10.4784022,24.500736 10.7537288,24.500736" id="Fill-50" fill="#E06E36"></path>
                </g>
                <g id="Sofa" transform="translate(28.000000, 68.000000)">
                    <path d="M108.411686,27.8832422 C108.411686,32.8817127 104.363482,36.9338602 99.3701863,36.9338602 C94.3765793,36.9338602 90.3283745,32.8817127 90.3283745,27.8832422 C90.3283745,22.8850839 94.3765793,18.8329363 99.3701863,18.8329363 C104.363482,18.8329363 108.411686,22.8850839 108.411686,27.8832422" id="Fill-65" fill="#EF5060"></path>
                    <path d="M55.85331,50.3334441 L22.968155,50.3334441 C21.603059,50.3334441 20.4967638,49.2260714 20.4967638,47.859646 L20.4967638,41.1245854 C20.4967638,39.758472 21.603059,38.6507873 22.968155,38.6507873 L55.85331,38.6507873 C57.2180941,38.6507873 58.3247011,39.758472 58.3247011,41.1245854 L58.3247011,47.859646 C58.3247011,49.2260714 57.2180941,50.3334441 55.85331,50.3334441" id="Fill-67" fill="#AD3137"></path>
                    <path d="M93.6812472,50.3334441 L60.7960923,50.3334441 C59.4309963,50.3334441 58.3247011,49.2260714 58.3247011,47.859646 L58.3247011,41.1245854 C58.3247011,39.758472 59.4309963,38.6507873 60.7960923,38.6507873 L93.6812472,38.6507873 C95.0460314,38.6507873 96.1526384,39.758472 96.1526384,41.1245854 L96.1526384,47.859646 C96.1526384,49.2260714 95.0460314,50.3334441 93.6812472,50.3334441" id="Fill-68" fill="#AD3137"></path>
                    <path d="M55.85331,49.4763851 L22.968155,49.4763851 C21.603059,49.4763851 20.4967638,48.3687003 20.4967638,47.002587 L20.4967638,40.2672143 C20.4967638,38.9011009 21.603059,37.7937283 22.968155,37.7937283 L55.85331,37.7937283 C57.2180941,37.7937283 58.3247011,38.9011009 58.3247011,40.2672143 L58.3247011,47.002587 C58.3247011,48.3687003 57.2180941,49.4763851 55.85331,49.4763851" id="Fill-69" fill="#CB373E"></path>
                    <path d="M93.6812472,49.4763851 L60.7960923,49.4763851 C59.4309963,49.4763851 58.3247011,48.3687003 58.3247011,47.002587 L58.3247011,40.2672143 C58.3247011,38.9011009 59.4309963,37.7937283 60.7960923,37.7937283 L93.6812472,37.7937283 C95.0460314,37.7937283 96.1526384,38.9011009 96.1526384,40.2672143 L96.1526384,47.002587 C96.1526384,48.3687003 95.0460314,49.4763851 93.6812472,49.4763851" id="Fill-70" fill="#CB373E"></path>
                    <path d="M55.85331,37.7937283 L22.968155,37.7937283 C21.603059,37.7937283 20.4967638,38.9011009 20.4967638,40.2672143 L20.4967638,42.0353276 C20.4967638,40.6692143 21.603059,39.5615295 22.968155,39.5615295 L55.85331,39.5615295 C57.2180941,39.5615295 58.3247011,40.6692143 58.3247011,42.0353276 L58.3247011,40.2672143 C58.3247011,38.9011009 57.2180941,37.7937283 55.85331,37.7937283" id="Fill-71" fill="#D8474D"></path>
                    <path d="M93.6812472,37.7937283 L60.7960923,37.7937283 C59.4309963,37.7937283 58.3247011,38.9011009 58.3247011,40.2672143 L58.3247011,42.0353276 C58.3247011,40.6692143 59.4309963,39.5615295 60.7960923,39.5615295 L93.6812472,39.5615295 C95.0460314,39.5615295 96.1526384,40.6692143 96.1526384,42.0353276 L96.1526384,40.2672143 C96.1526384,38.9011009 95.0460314,37.7937283 93.6812472,37.7937283" id="Fill-72" fill="#D8474D"></path>
                    <path d="M12.106631,35.1083183 L12.106631,36.9594534 C13.6213948,38.105528 15.5075221,38.7859317 17.5526716,38.7859317 C19.597821,38.7859317 21.4836365,38.105528 22.9987122,36.9594534 L22.9987122,35.1083183 C21.4839483,36.2540807 19.5975092,36.9338602 17.5526716,36.9338602 C15.5075221,36.9338602 13.6213948,36.2540807 12.106631,35.1083183" id="Fill-73" fill="#AD3137"></path>
                    <path d="M93.9241458,35.1083183 L93.9241458,36.9594534 C95.4389096,38.105528 97.3247251,38.7859317 99.3701863,38.7859317 C101.415336,38.7859317 103.301151,38.105528 104.815915,36.9594534 L104.815915,35.1083183 C103.301151,36.2540807 101.415024,36.9338602 99.3701863,36.9338602 C97.3250369,36.9338602 95.4389096,36.2540807 93.9241458,35.1083183" id="Fill-74" fill="#AD3137"></path>
                    <polygon id="Fill-75" fill="#AD3137" points="93.0816402 58.384368 93.9241458 58.384368 93.9241458 49.4763851 93.0816402 49.4763851"></polygon>
                    <polygon id="Fill-76" fill="#AD3137" points="22.9984004 58.384368 23.8412177 58.384368 23.8412177 49.4763851 22.9984004 49.4763851"></polygon>
                    <polyline id="Fill-77" fill="#3F2C2C" points="23.4199649 62.7380155 20.979131 62.7380155 19.8444613 58.384368 24.5546347 58.384368 23.4199649 62.7380155"></polyline>
                    <polygon id="Fill-78" fill="#3E645E" points="19.8444613 60.2997981 24.5546347 60.2997981 24.5546347 58.384368 19.8444613 58.384368"></polygon>
                    <polyline id="Fill-80" fill="#271E1E" points="24.0554299 60.2997981 20.3436661 60.2997981 19.8444613 58.384368 24.5546347 58.384368 24.0554299 60.2997981"></polyline>
                    <polyline id="Fill-81" fill="#3F2C2C" points="93.502893 62.7380155 95.9434151 62.7380155 97.0780849 58.384368 92.3679114 58.384368 93.502893 62.7380155"></polyline>
                    <polyline id="Fill-82" fill="#271E1E" points="96.5788801 60.2997981 92.867428 60.2997981 92.3679114 58.384368 97.0780849 58.384368 96.5788801 60.2997981"></polyline>
                    <path d="M0.846616236,35.5864736 L4.52189852,52.4258416 C4.56555166,52.6259053 4.7629262,52.7523106 4.96248339,52.708927 L7.30291513,52.1970637 C7.50278413,52.153368 7.62937823,51.9558012 7.58572509,51.7557376 L3.9104428,34.9163696 C3.86678967,34.716618 3.66941513,34.5899006 3.46954613,34.6335963 L1.1294262,35.1451475 C0.929557196,35.1888432 0.8029631,35.3864099 0.846616236,35.5864736" id="Fill-51" fill="#DD4634"></path>
                    <polyline id="Fill-52" fill="#3B3B3D" points="4.49633026 50.6240202 6.85827675 50.1074752 7.00139668 50.7644705 4.63976199 51.2810155 4.49633026 50.6240202"></polyline>
                    <polyline id="Fill-53" fill="#3B3B3D" points="4.22692804 49.3902422 6.58887454 48.8736972 6.73230627 49.5306925 4.37035978 50.0472376 4.22692804 49.3902422"></polyline>
                    <polyline id="Fill-54" fill="#BD3D31" points="6.191631 47.0531491 3.8296845 47.5696941 1.4599428 36.712573 3.8218893 36.196028 6.191631 47.0531491"></polyline>
                    <path d="M85.082203,0.774147516 L61.8777546,0.774147516 C59.9155461,0.774147516 58.3247011,2.36654193 58.3247011,4.3309736 C58.3247011,2.36654193 56.7338561,0.774147516 54.7713358,0.774147516 L31.5671993,0.774147516 C23.8271863,0.774147516 17.5526716,7.05477329 17.5526716,14.8023245 L17.5526716,38.6620233 C17.5526716,42.5796506 20.7253192,45.7557003 24.6394465,45.7557003 L65.3469317,45.7557003 L65.3469317,45.7541398 L65.411476,45.7557003 L92.0099557,45.7557003 C95.9237712,45.7557003 99.0967306,42.5796506 99.0967306,38.6620233 L99.0967306,14.8023245 C99.0967306,7.05477329 92.8222159,0.774147516 85.082203,0.774147516" id="Fill-55" fill="#EF5060"></path>
                    <path d="M56.6839668,1.33657298 L56.6839668,43.1973199 C57.7070092,41.9675994 58.3247011,40.3876894 58.3247011,38.6620233 L58.3247011,4.3309736 C58.3247011,3.0719146 57.6699041,1.96828727 56.6839668,1.33657298" id="Fill-56" fill="#9E2E31"></path>
                    <path d="M59.9654354,1.33657298 L59.9654354,43.1973199 C58.9420812,41.9675994 58.3247011,40.3876894 58.3247011,38.6620233 L58.3247011,4.3309736 C58.3247011,3.0719146 58.9794982,1.96828727 59.9654354,1.33657298" id="Fill-57" fill="#AD3137"></path>
                    <polygon id="Fill-58" fill="#EF5060" points="19.0889502 58.384368 97.5601402 58.384368 97.5601402 44.4086258 19.0889502 44.4086258"></polygon>
                    <path d="M55.85331,51.5971848 L22.968155,51.5971848 C21.603059,51.5971848 20.4967638,50.4895 20.4967638,49.1233866 L20.4967638,42.388014 C20.4967638,41.0219006 21.603059,39.914528 22.968155,39.914528 L55.85331,39.914528 C57.2180941,39.914528 58.3247011,41.0219006 58.3247011,42.388014 L58.3247011,49.1233866 C58.3247011,50.4895 57.2180941,51.5971848 55.85331,51.5971848" id="Fill-59" fill="#EF5060"></path>
                    <path d="M22.9984004,58.384368 L19.8444613,58.384368 C15.571131,58.384368 12.106631,54.9164938 12.106631,50.6386894 L12.106631,29.7356258 L22.9984004,29.7356258 L22.9984004,58.384368" id="Fill-60" fill="#EF5060"></path>
                    <path d="M93.6812472,51.5971848 L60.7960923,51.5971848 C59.4309963,51.5971848 58.3247011,50.4895 58.3247011,49.1233866 L58.3247011,42.388014 C58.3247011,41.0219006 59.4309963,39.914528 60.7960923,39.914528 L93.6812472,39.914528 C95.0460314,39.914528 96.1526384,41.0219006 96.1526384,42.388014 L96.1526384,49.1233866 C96.1526384,50.4895 95.0460314,51.5971848 93.6812472,51.5971848" id="Fill-61" fill="#EF5060"></path>
                    <path d="M26.5941716,27.8832422 C26.5941716,32.8817127 22.5462786,36.9338602 17.5526716,36.9338602 C12.5590646,36.9338602 8.51085978,32.8817127 8.51085978,27.8832422 C8.51085978,22.8850839 12.5590646,18.8329363 17.5526716,18.8329363 C22.5462786,18.8329363 26.5941716,22.8850839 26.5941716,27.8832422" id="Fill-62" fill="#EF5060"></path>
                    <path d="M19.812345,27.8832422 C19.812345,29.1326258 18.8008395,30.1454286 17.5526716,30.1454286 C16.3045037,30.1454286 15.2926863,29.1326258 15.2926863,27.8832422 C15.2926863,26.6341708 16.3045037,25.621368 17.5526716,25.621368 C18.8008395,25.621368 19.812345,26.6341708 19.812345,27.8832422" id="Fill-63" fill="#9E2E31"></path>
                    <path d="M97.0780849,58.384368 L93.9241458,58.384368 L93.9241458,29.7356258 L104.815915,29.7356258 L104.815915,50.6386894 C104.815915,54.9164938 101.351727,58.384368 97.0780849,58.384368" id="Fill-64" fill="#EF5060"></path>
                    <path d="M101.62986,27.8832422 C101.62986,29.1326258 100.618042,30.1454286 99.3701863,30.1454286 C98.1220185,30.1454286 97.1102011,29.1326258 97.1102011,27.8832422 C97.1102011,26.6341708 98.1220185,25.621368 99.3701863,25.621368 C100.618042,25.621368 101.62986,26.6341708 101.62986,27.8832422" id="Fill-66" fill="#9E2E31"></path>
                </g>
                <g id="Lamp" transform="translate(0.000000, 43.000000)">
                    <path d="M19.5254244,37.0207842 C19.5254244,37.4589891 19.1705867,37.8141724 18.7328081,37.8141724 C18.2950295,37.8141724 17.9401919,37.4589891 17.9401919,37.0207842 C17.9401919,36.5828913 18.2950295,36.2277081 18.7328081,36.2277081 C19.1705867,36.2277081 19.5254244,36.5828913 19.5254244,37.0207842" id="Fill-91" fill="#E7AD42"></path>
                    <path d="M18.7328081,36.7348898 C19.0187362,36.7348898 19.2834613,36.8147904 19.5176292,36.9436925 C19.4783413,36.5423168 19.144083,36.2277081 18.7328081,36.2277081 C18.3215332,36.2277081 17.9872749,36.5423168 17.9479871,36.9436925 C18.1818432,36.8147904 18.4468801,36.7348898 18.7328081,36.7348898" id="Fill-92" fill="#E9C448"></path>
                    <polygon id="Fill-90" fill="#5A5A5A" points="18.459976 37.0207842 19.0056402 37.0207842 19.0056402 24.8484239 18.459976 24.8484239"></polygon>
                    <g id="Group-88" transform="translate(0.000000, 0.695652)">
                        <mask id="mask-2" fill="white">
                            <use xlink:href="#path-1"></use>
                        </mask>
                        <g id="Clip-86"></g>
                        <path d="M20.2728284,86.1387997 L7.22397048,86.1387997 L11.2300812,83.6078851 C11.6086162,83.3684953 12.0473303,83.2414658 12.4950867,83.2414658 L15.002024,83.2414658 C15.4497804,83.2414658 15.8884945,83.3684953 16.2670295,83.6078851 L20.2728284,86.1387997" id="Fill-85" fill="#E5E3DE" mask="url(#mask-2)"></path>
                        <path d="M26.749083,24.1527717 L0.748027675,24.1527717 C0.0729630996,24.1527717 -0.22200738,23.168059 0.187084871,22.3256693 L7.57319557,0.953501553 C7.76526937,0.558055901 8.12696679,0.307430124 8.50300738,0.307430124 L18.9941033,0.307430124 C19.3698321,0.307430124 19.7318413,0.558055901 19.9239151,0.953501553 L27.309714,22.3256693 C27.7191181,23.168059 27.4238358,24.1527717 26.749083,24.1527717" id="Fill-87" fill="#F79420" mask="url(#mask-2)"></path>
                    </g>
                    <polygon id="Fill-89" fill="#F9F6F4" points="12.752952 25.8237733 14.7444705 25.8237733 14.7444705 24.8484239 12.752952 24.8484239"></polygon>
                    <path d="M19.6582546,87.7380155 L7.84166236,87.7380155 C7.50210332,87.7380155 7.22677675,87.4624208 7.22677675,87.1225311 L7.22677675,86.8344519 L20.2728284,86.8344519 L20.2728284,87.1225311 C20.2728284,87.4624208 19.9978137,87.7380155 19.6582546,87.7380155" id="Fill-84" fill="#ADAFAB"></path>
                    <polygon id="Fill-83" fill="#D3D1CB" points="12.752952 84.7785714 14.7444705 84.7785714 14.7444705 16.4941273 12.752952 16.4941273"></polygon>
                </g>
                <g id="Rug" transform="translate(19.000000, 130.000000)" fill="#FDE04D">
                    <path d="M0.582173432,0.738015528 C15.5502103,21.5018773 39.9270572,35.0194394 67.4612731,35.0194394 C94.9954889,35.0194394 119.372336,21.5018773 134.340373,0.738015528 L0.582173432,0.738015528" id="Fill-93"></path>
                </g>
                <g id="TV" transform="translate(36.000000, 135.000000)">
                    <path d="M100.054354,2.65222826 L100.054354,13.4169643 C88.3709041,22.2403649 74.2678229,28.0237966 58.9175092,29.5905978 C56.1361808,29.8714984 53.3174354,30.018191 50.4612731,30.018191 C47.6051107,30.018191 44.7863653,29.8714984 42.0050369,29.5905978 C26.6547232,28.0237966 12.5516421,22.2403649 0.868191882,13.4169643 L0.868191882,2.65222826 L100.054354,2.65222826" id="Fill-94" fill="#000000"></path>
                    <polyline id="Fill-95" fill="#5A5A5A" points="97.0846937 0.944040373 3.8378524 0.944040373 0.867568266 2.65472516 100.054978 2.65472516 97.0846937 0.944040373"></polyline>
                    <path d="M34.2862269,6.29582143 C33.5974428,6.29582143 33.0389945,6.85481366 33.0389945,7.54426863 L33.0389945,13.0062252 C33.0389945,13.6956801 33.5974428,14.2546724 34.2862269,14.2546724 C34.9750111,14.2546724 35.5334594,13.6956801 35.5334594,13.0062252 L35.5334594,7.54426863 C35.5334594,6.85481366 34.9750111,6.29582143 34.2862269,6.29582143" id="Fill-96" fill="#FFFFFF"></path>
                    <path d="M40.7562454,6.29582143 C40.0674613,6.29582143 39.5090129,6.85481366 39.5090129,7.54426863 L39.5090129,13.0062252 C39.5090129,13.6956801 40.0674613,14.2546724 40.7562454,14.2546724 C41.4450295,14.2546724 42.0034779,13.6956801 42.0034779,13.0062252 L42.0034779,7.54426863 C42.0034779,6.85481366 41.4450295,6.29582143 40.7562454,6.29582143" id="Fill-97" fill="#FFFFFF"></path>
                    <path d="M47.2262638,6.29582143 C46.5374797,6.29582143 45.9790314,6.85481366 45.9790314,7.54426863 L45.9790314,13.0062252 C45.9790314,13.6956801 46.5374797,14.2546724 47.2262638,14.2546724 C47.915048,14.2546724 48.4734963,13.6956801 48.4734963,13.0062252 L48.4734963,7.54426863 C48.4734963,6.85481366 47.915048,6.29582143 47.2262638,6.29582143" id="Fill-98" fill="#FFFFFF"></path>
                    <path d="M53.6962823,6.29582143 C53.0074982,6.29582143 52.4490498,6.85481366 52.4490498,7.54426863 L52.4490498,13.0062252 C52.4490498,13.6956801 53.0074982,14.2546724 53.6962823,14.2546724 C54.3850664,14.2546724 54.9435148,13.6956801 54.9435148,13.0062252 L54.9435148,7.54426863 C54.9435148,6.85481366 54.3850664,6.29582143 53.6962823,6.29582143" id="Fill-99" fill="#FFFFFF"></path>
                    <path d="M60.1663007,6.29582143 C59.4775166,6.29582143 58.9190683,6.85481366 58.9190683,7.54426863 L58.9190683,13.0062252 C58.9190683,13.6956801 59.4775166,14.2546724 60.1663007,14.2546724 C60.8550849,14.2546724 61.4135332,13.6956801 61.4135332,13.0062252 L61.4135332,7.54426863 C61.4135332,6.85481366 60.8550849,6.29582143 60.1663007,6.29582143" id="Fill-100" fill="#FFFFFF"></path>
                    <path d="M66.6363192,6.29582143 C65.9475351,6.29582143 65.3890867,6.85481366 65.3890867,7.54426863 L65.3890867,13.0062252 C65.3890867,13.6956801 65.9475351,14.2546724 66.6363192,14.2546724 C67.3251033,14.2546724 67.8835517,13.6956801 67.8835517,13.0062252 L67.8835517,7.54426863 C67.8835517,6.85481366 67.3251033,6.29582143 66.6363192,6.29582143" id="Fill-101" fill="#FFFFFF"></path>
                    <path d="M58.9175092,20.9825543 L58.9175092,29.5905978 C56.1361808,29.8714984 53.3174354,30.018191 50.4612731,30.018191 C47.6051107,30.018191 44.7863653,29.8714984 42.0050369,29.5905978 L42.0050369,20.9825543 C42.008155,19.9650699 42.8250923,19.1442158 43.8415867,19.1442158 L57.0809594,19.1442158 C58.0974539,19.1442158 58.9143911,19.9650699 58.9175092,20.9825543" id="Fill-102" fill="#FFFFFF"></path>
                    <path d="M57.0806476,17.2234798 L43.8418985,17.2234798 C42.8266513,17.2234798 42.0034779,18.047455 42.0034779,19.063691 L42.0034779,20.984427 C42.0034779,19.968191 42.8266513,19.1442158 43.8418985,19.1442158 L57.0806476,19.1442158 C58.0962066,19.1442158 58.9190683,19.968191 58.9190683,20.984427 L58.9190683,19.063691 C58.9190683,18.047455 58.0962066,17.2234798 57.0806476,17.2234798" id="Fill-103" fill="#5A5A5A"></path>
                </g>
                <polygon id="Fill-104" fill="#4F3835" points="147.686356 91.220604 151.050766 91.220604 151.050766 79.6777733 147.686356 79.6777733"></polygon>
                <path d="M151.050766,88.3625963 C150.515391,88.3179643 149.951642,88.3048556 149.368561,88.3048556 C148.785792,88.3048556 148.221731,88.3179643 147.686356,88.3625963 L147.686356,91.220604 L151.050766,91.220604 L151.050766,88.3625963" id="Fill-105" fill="#3F2C2C"></path>
                <path d="M149.368561,89.0208401 C146.186247,89.0208401 143.559887,89.4009922 143.176363,93.2967717 C143.124292,93.8248649 143.539308,94.2836693 144.069382,94.2836693 L154.66774,94.2836693 C155.198125,94.2836693 155.613142,93.8248649 155.56107,93.2967717 C155.177234,89.4009922 152.551186,89.0208401 149.368561,89.0208401" id="Fill-106" fill="#4F3835"></path>
                <path d="M143.176675,93.3595062 C143.162644,93.8601335 143.560511,94.2836693 144.069382,94.2836693 L154.66774,94.2836693 C155.176611,94.2836693 155.57479,93.8601335 155.560446,93.3595062 L143.176675,93.3595062" id="Fill-107" fill="#302122"></path>
                <path d="M147.686356,84.1138183 C148.231397,84.1550171 148.793275,84.1778012 149.368561,84.1778012 C149.943847,84.1778012 150.505725,84.1550171 151.050766,84.1138183 L151.050766,79.6777733 L147.686356,79.6777733 L147.686356,84.1138183" id="Fill-108" fill="#7D645C"></path>
                <path d="M156.553867,82.7036972 L142.183255,82.7036972 C141.810332,82.7036972 141.563692,82.1219208 141.721155,81.614427 L145.177548,70.4823354 C145.286369,70.132146 145.520537,69.9083618 145.777779,69.9083618 L152.959655,69.9083618 C153.216897,69.9083618 153.450753,70.132146 153.559574,70.4823354 L157.015967,81.614427 C157.173742,82.1219208 156.92679,82.7036972 156.553867,82.7036972" id="Fill-109" fill="#F79420"></path>
                <path d="M138.141286,91.5704814 C137.353035,91.5704814 136.713828,90.7496273 136.713828,89.7371366 C136.713828,88.7243339 137.353035,87.9034798 138.141286,87.9034798 C138.929537,87.9034798 139.568744,88.7243339 139.568744,89.7371366 C139.568744,90.7496273 138.929537,91.5704814 138.141286,91.5704814 L138.141286,91.5704814 Z M138.141286,86.9861832 C136.958598,86.9861832 135.999788,88.2177764 135.999788,89.7371366 C135.999788,91.2561848 136.958598,92.487778 138.141286,92.487778 C139.323974,92.487778 140.282472,91.2561848 140.282472,89.7371366 C140.282472,88.2177764 139.323974,86.9861832 138.141286,86.9861832 L138.141286,86.9861832 Z" id="Fill-110" fill="#D3D1CB"></path>
                <path d="M138.755236,93.9353525 C138.415989,93.9353525 138.141286,93.6600699 138.141286,93.3208043 L138.141286,86.0205093 C138.141286,85.7115186 138.391356,85.4608929 138.700046,85.4608929 L144.6191,85.4608929 C144.92779,85.4608929 145.17786,85.7115186 145.17786,86.0205093 L145.17786,93.3208043 C145.17786,93.6600699 144.903157,93.9353525 144.56391,93.9353525 L138.755236,93.9353525" id="Fill-111" fill="#F79420"></path>
                <path d="M144.549878,93.9353525 L138.769268,93.9353525 L138.769268,94.0975389 C138.769268,94.2843668 138.874659,94.4353525 139.004683,94.4353525 L144.314463,94.4353525 C144.444487,94.4353525 144.549878,94.2843668 144.549878,94.0975389 L144.549878,93.9353525" id="Fill-112" fill="#5A5A5A"></path>
                <path d="M147.956382,90.0055528 L165.863834,90.0055528 C166.06838,90.0055528 166.23395,89.8395093 166.23395,89.634764 L166.23395,88.205604 C166.23395,88.0008587 166.06838,87.8348152 165.863834,87.8348152 L147.956382,87.8348152 C147.751836,87.8348152 147.586266,88.0008587 147.586266,88.205604 L147.586266,89.634764 C147.586266,89.8395093 147.751836,90.0055528 147.956382,90.0055528" id="Fill-113" fill="#DF6C32"></path>
                <polygon id="Fill-114" fill="#CB462E" points="149.607718 89.2561724 158.915502 89.2561724 158.915502 88.5838835 149.607718 88.5838835"></polygon>
                <polygon id="Fill-115" fill="#CB462E" points="160.142467 89.2561724 163.632847 89.2561724 163.632847 88.5838835 160.142467 88.5838835"></polygon>
                <path d="M149.393506,94.2836693 L165.221509,94.2836693 C165.426055,94.2836693 165.591625,94.1179379 165.591625,93.9131925 L165.591625,90.3760295 C165.591625,90.1712842 165.426055,90.0055528 165.221509,90.0055528 L149.393506,90.0055528 C149.188959,90.0055528 149.023389,90.1712842 149.023389,90.3760295 L149.023389,93.9131925 C149.023389,94.1179379 149.188959,94.2836693 149.393506,94.2836693" id="Fill-116" fill="#E7AD42"></path>
                <polygon id="Fill-117" fill="#E06E36" points="150.122201 93.0420885 159.917965 93.0420885 159.917965 91.2474457 150.122201 91.2474457"></polygon>
                <polygon id="Fill-118" fill="#E06E36" points="163.52995 93.0420885 164.205327 93.0420885 164.205327 91.2474457 163.52995 91.2474457"></polygon>
                <polygon id="Fill-119" fill="#E06E36" points="162.334478 93.0420885 163.010166 93.0420885 163.010166 91.2474457 162.334478 91.2474457"></polygon>
                <polyline id="Fill-141" fill="#217061" points="83.3332786 197.960916 83.3322786 197.951916 83.3332786 197.960916"></polyline>
                <path id="Fill-142" fill="#217061"></path>
                <polyline id="Fill-143" fill="#217061" points="83.6444797 198.973416 83.6359797 198.956916 83.6444797 198.973416"></polyline>
                <polyline id="Fill-144" fill="#217061" points="83.6279446 198.942455 83.5954446 198.875455 83.6279446 198.942455"></polyline>
                <path id="Fill-145" fill="#217061"></path>
            </g>
        </g>
    </g>
</svg>